<!-- Generator: Adobe Illustrator 21.0.0, SVG Export Plug-In  -->
<svg version="1.1"
	 xmlns="http://www.w3.org/2000/svg" xmlns:xlink="http://www.w3.org/1999/xlink" xmlns:a="http://ns.adobe.com/AdobeSVGViewerExtensions/3.0/"
	 x="0px" y="0px" width="287.179px" height="246.52px" viewBox="0 0 287.179 246.52"
	 style="enable-background:new 0 0 287.179 246.52;" xml:space="preserve">
<style type="text/css">
	.st0{fill:#589CDC;}
	.st1{fill:#EAEAEA;}
</style>
<defs>
</defs>
<rect class="st0" width="287.179" height="246.52"/>
<g>
	<path class="st1" d="M115.438,125.787c1.627,0,3.161,0,4.793,0c0.024,0.455,0.056,0.787,0.057,1.118
		c0.007,2.362,0.027,4.724-0.004,7.086c-0.009,0.678,0.168,0.936,0.895,0.934c8.723-0.023,17.447-0.008,26.171-0.024
		c1.905-0.004,3.622-1.287,4.088-3.437c0.516-2.383,0.751-4.836,0.955-7.272c0.12-1.434-0.062-2.892-0.1-4.34
		c-0.05-1.9,0.871-2.82,2.783-2.918c2.92-0.149,5.839-0.325,8.754-0.555c0.772-0.061,1.539-0.319,2.284-0.561
		c2.703-0.877,3.826-2.415,3.83-5.249c0.009-5.291,0-10.582,0-15.872c0-8.093,0.002-16.187-0.001-24.28
		c0-1.261-0.011-1.271-1.314-1.271c-14.802,0.002-29.603,0.007-44.405,0.011c-1.254,0-2.508,0-3.93,0c0,0.578,0,1.065,0,1.552
		c-0.001,1.921,0.006,3.842-0.01,5.763c-0.003,0.299-0.011,0.703-0.192,0.878c-1.555,1.503-3.15,2.965-4.677,4.387
		c-0.003-0.055-0.032-0.32-0.032-0.584c-0.003-4.661-0.004-9.322,0-13.983c0.002-2.023,0.903-2.932,2.949-2.933
		c17.857-0.004,35.714-0.004,53.57,0.003c2.046,0.001,2.961,0.908,2.961,2.924c0.001,14.455,0.007,28.911-0.017,43.366
		c-0.007,4.292-1.311,8.052-4.441,11.173c-5.104,5.091-10.066,10.324-15.139,15.447c-1.83,1.848-4.152,2.681-6.756,2.681
		c-10.172,0-20.344-0.001-30.516-0.009c-1.533-0.001-2.598-0.951-2.607-2.388c-0.024-3.81-0.004-7.621,0.003-11.432
		C115.39,125.912,115.43,125.821,115.438,125.787z"/>
	<path class="st1" d="M136.004,103.099c0,0.987-0.001,1.891,0,2.795c0.005,4.314,0.011,8.628,0.016,12.942
		c0.003,2.006-0.701,2.729-2.731,2.732c-5.259,0.009-10.518,0.007-15.777-0.004c-1.75-0.004-2.563-0.862-2.562-2.634
		c0.002-4.85,0.001-9.699,0.002-14.549c0-0.371,0-0.743,0-1.206c-0.431-0.027-0.764-0.065-1.096-0.066
		c-2.614-0.007-5.228-0.018-7.841-0.002c-1.027,0.006-1.884-0.266-2.319-1.272c-0.442-1.021,0.007-1.807,0.721-2.535
		c6.485-6.607,12.96-13.223,19.442-19.833c1.031-1.051,2.3-1.082,3.323-0.042c6.579,6.691,13.147,13.392,19.72,20.089
		c0.655,0.667,0.916,1.436,0.544,2.324c-0.372,0.889-1.12,1.255-2.039,1.259c-2.74,0.012-5.479,0.001-8.219,0
		C136.846,103.099,136.505,103.099,136.004,103.099z"/>
</g>
</svg>