<!-- Generator: Adobe Illustrator 21.0.0, SVG Export Plug-In  -->
<svg version="1.1"
	 xmlns="http://www.w3.org/2000/svg" xmlns:xlink="http://www.w3.org/1999/xlink" xmlns:a="http://ns.adobe.com/AdobeSVGViewerExtensions/3.0/"
	 x="0px" y="0px" width="50.691px" height="50.691px" viewBox="0 0 50.691 50.691"
	 style="enable-background:new 0 0 50.691 50.691;" xml:space="preserve">
<style type="text/css">
	.st0{fill:#589CDC;}
</style>
<defs>
</defs>
<path class="st0" d="M22.964,24.49c0.99,0.908,1.96,1.797,2.93,2.687c1.434,1.317,2.883,2.618,4.297,3.956
	c1.073,1.015,0.993,2.534-0.135,3.458c-0.723,0.593-1.868,0.687-2.6,0.086c-1.118-0.916-2.179-1.904-3.248-2.879
	c-1.962-1.788-3.909-3.593-5.869-5.384c-1.351-1.235-1.358-2.591-0.001-3.838c2.831-2.603,5.664-5.203,8.493-7.808
	c0.67-0.617,1.402-1.023,2.353-0.798c0.862,0.204,1.413,0.753,1.659,1.583c0.249,0.838,0.058,1.61-0.573,2.217
	c-0.927,0.893-1.886,1.752-2.835,2.622C25.955,21.751,24.472,23.108,22.964,24.49z"/>
<path class="st0" d="M25.346,50.691c-6.77,0-13.135-2.636-17.922-7.424C2.636,38.481,0,32.116,0,25.346S2.636,12.211,7.424,7.424
	C12.211,2.636,18.576,0,25.346,0s13.135,2.636,17.922,7.424c4.787,4.787,7.424,11.152,7.424,17.922s-2.636,13.135-7.424,17.922
	C38.481,48.055,32.116,50.691,25.346,50.691z M25.346,3.092c-12.271,0-22.254,9.983-22.254,22.254
	c0,12.271,9.983,22.254,22.254,22.254S47.6,37.617,47.6,25.346C47.6,13.075,37.616,3.092,25.346,3.092z"/>
</svg>